HIERARCHY
ROOT SpineBase
{
  OFFSET 0.000000 0.000000 0.000000
  CHANNELS 6 Xposition Yposition Zposition Zrotation Xrotation Yrotation
  JOINT SpineMid
  {
    OFFSET 0.000000 29.000395 0.000000
    CHANNELS 3 Zrotation Xrotation Yrotation
    JOINT SpineShoulder
    {
      OFFSET 0.069058 21.566544 -0.760530
      CHANNELS 3 Zrotation Xrotation Yrotation
      JOINT Neck
      {
        OFFSET 0.034861 7.138931 -0.545109
        CHANNELS 3 Zrotation Xrotation Yrotation
        JOINT Head
        {
          OFFSET -4.510061 13.579479 -1.414847
          CHANNELS 3 Zrotation Xrotation Yrotation
          End Site
          {
            OFFSET 0 0 0
          }
        }
      }
      JOINT ShoulderLeft
      {
        OFFSET -16.141089 -5.669728 5.121781
        CHANNELS 3 Zrotation Xrotation Yrotation
        JOINT ElbowLeft
        {
          OFFSET -1.181600 -25.409953 2.001224
          CHANNELS 3 Zrotation Xrotation Yrotation
          JOINT WristLeft
          {
            OFFSET 0.413196 -21.313737 -5.760139
            CHANNELS 3 Zrotation Xrotation Yrotation
            JOINT HandLeft
            {
              OFFSET 0.600062 -3.602058 -1.241015
              CHANNELS 3 Zrotation Xrotation Yrotation
              JOINT HandTipLeft
              {
                OFFSET 0.983296 -7.700099 -0.495792
                CHANNELS 3 Zrotation Xrotation Yrotation
                End Site
                {
                  OFFSET 0 0 0
                }
              }
              JOINT ThumbLeft
              {
                OFFSET -2.420382 -2.192681 -2.130687
                CHANNELS 3 Zrotation Xrotation Yrotation
                End Site
                {
                  OFFSET 0 0 0
                }
              }
            }
          }
        }
      }
      JOINT ShoulderRight
      {
        OFFSET 14.328504 -2.593120 -7.591766
        CHANNELS 3 Zrotation Xrotation Yrotation
        JOINT ElbowRight
        {
          OFFSET 6.207243 -25.343900 0.038636
          CHANNELS 3 Zrotation Xrotation Yrotation
          JOINT WristRight
          {
            OFFSET -1.845839 -21.335451 -5.321897
            CHANNELS 3 Zrotation Xrotation Yrotation
            JOINT HandRight
            {
              OFFSET -1.876545 -3.275308 0.159226
              CHANNELS 3 Zrotation Xrotation Yrotation
              JOINT HandTipRight
              {
                OFFSET -0.453991 -7.154717 -0.425708
                CHANNELS 3 Zrotation Xrotation Yrotation
                End Site
                {
                  OFFSET 0 0 0
                }
              }
              JOINT ThumbRight
              {
                OFFSET -3.226943 0.909104 -1.240013
                CHANNELS 3 Zrotation Xrotation Yrotation
                End Site
                {
                  OFFSET 0 0 0
                }
              }
            }
          }
        }
      }
    }
  }
  JOINT HipLeft
  {
    OFFSET -6.463519 -0.328060 -0.816033
    CHANNELS 3 Zrotation Xrotation Yrotation
    JOINT KneeLeft
    {
      OFFSET 3.601783 -28.771390 6.171205
      CHANNELS 3 Zrotation Xrotation Yrotation
      JOINT AnkleLeft
      {
        OFFSET 3.496888 -31.378196 6.399127
        CHANNELS 3 Zrotation Xrotation Yrotation
        JOINT FootLeft
        {
          OFFSET 3.598970 -7.674095 -4.956820
          CHANNELS 3 Zrotation Xrotation Yrotation
          End Site
          {
            OFFSET 0 0 0
          }
        }
      }
    }
  }
  JOINT HipRight
  {
    OFFSET 6.917139 1.735775 -5.987039
    CHANNELS 3 Zrotation Xrotation Yrotation
    JOINT KneeRight
    {
      OFFSET 6.204531 -27.242623 4.071645
      CHANNELS 3 Zrotation Xrotation Yrotation
      JOINT AnkleRight
      {
        OFFSET 3.456219 -33.999059 7.638212
        CHANNELS 3 Zrotation Xrotation Yrotation
        JOINT FootRight
        {
          OFFSET -5.881439 -6.238040 -2.180586
          CHANNELS 3 Zrotation Xrotation Yrotation
          End Site
          {
            OFFSET 0 0 0
          }
        }
      }
    }
  }
}
MOTION
Frames: 9
Frame Time: 0.033333
-22.194540 70.509160 360.105236 3.834947 1.306412 25.913860 -0.185563 0.230831 -25.843227 -0.336571 -0.248834 0.122718 9.703380 -1.971553 1.136088 0.000000 0.000000 0.000000 -28.922454 20.630818 1.134729 37.790451 54.521663 0.427715 -33.857131 -33.097081 -11.022532 8.667116 24.117161 1.724653 0.000000 0.000000 0.000000 0.000000 0.000000 0.000000 -16.823060 26.889694 10.117350 -62.054934 -5.531471 -10.483822 26.033964 9.325329 -21.477644 -19.521248 -4.652498 9.506439 0.000000 0.000000 0.000000 0.000000 0.000000 0.000000 -3.538604 4.667256 -25.762852 0.827222 -4.924171 -0.412816 -6.555502 12.304349 10.546432 0.000000 0.000000 0.000000 -6.651800 0.015808 -26.613444 2.394799 3.539100 0.903069 0.733026 2.505363 -4.773718 0.000000 0.000000 0.000000
-22.162104 70.505485 360.109615 3.769993 1.302737 25.917832 -0.223577 0.237319 -25.849787 -0.336475 -0.246128 0.118282 9.728114 -2.099781 1.102853 0.000000 0.000000 0.000000 -29.165837 20.510811 1.157708 40.291797 53.991800 -0.732811 -36.683484 -28.455345 -11.013811 6.529737 23.756622 1.463954 0.000000 0.000000 0.000000 0.000000 0.000000 0.000000 -18.149602 26.702848 10.419380 -60.774551 -6.024397 -10.452621 26.546811 8.261012 -21.282861 -24.880975 -3.984018 9.045796 0.000000 0.000000 0.000000 0.000000 0.000000 0.000000 -3.467748 4.626338 -25.764976 0.728347 -4.946859 -0.442584 -6.592636 10.723349 9.920177 0.000000 0.000000 0.000000 -6.577275 -0.015809 -26.616583 2.250659 3.531781 0.877214 1.154777 5.378766 -7.519530 0.000000 0.000000 0.000000
-22.148650 70.498221 360.119475 3.704978 1.283469 25.936493 -0.250087 0.245764 -25.870266 -0.335418 -0.245563 0.114453 9.779149 -2.349247 1.042977 0.000000 0.000000 0.000000 -28.879549 20.009497 1.058045 38.593603 54.274890 -0.092852 -25.198831 -25.499573 -4.368876 -5.415396 23.387064 0.135230 0.000000 0.000000 0.000000 0.000000 0.000000 0.000000 -17.391285 26.252898 10.071577 -61.216818 -6.207523 -10.177936 25.833276 6.863536 -20.956165 -27.123299 -3.690358 8.544673 0.000000 0.000000 0.000000 0.000000 0.000000 0.000000 -3.384711 4.597923 -25.780116 0.676043 -4.977378 -0.460005 -2.975608 4.192833 4.216676 0.000000 0.000000 0.000000 -6.428746 -0.024472 -26.615952 2.122718 3.426810 0.842570 1.772487 7.148215 -9.319818 0.000000 0.000000 0.000000
-22.135512 70.470097 360.137653 3.661579 1.254126 25.905762 -0.254127 0.252027 -25.839833 -0.335356 -0.241608 0.112297 9.826035 -2.817995 0.938392 0.000000 0.000000 0.000000 -28.088448 18.906805 0.798753 41.735429 55.164965 -2.997961 -33.545900 -20.852160 -7.300971 -4.678761 23.737490 -0.496592 0.000000 0.000000 0.000000 0.000000 0.000000 0.000000 -14.979831 25.308797 9.122855 -63.234434 -6.185395 -9.476357 22.879129 7.216636 -20.790508 -23.924147 -4.544996 8.086516 0.000000 0.000000 0.000000 0.000000 0.000000 0.000000 -3.336600 4.578131 -25.748556 0.670579 -4.961799 -0.459212 -3.891731 4.241389 4.883739 0.000000 0.000000 0.000000 -6.322581 -0.003945 -26.568391 2.141234 3.277937 0.828085 2.229577 7.799714 -10.068154 0.000000 0.000000 0.000000
-22.127067 70.412671 360.156157 3.640243 1.213275 25.939587 -0.232306 0.252374 -25.872101 -0.325770 -0.237058 0.113079 9.857726 -3.351035 0.819096 0.000000 0.000000 0.000000 -26.484836 17.145212 0.380833 41.714395 57.620284 -5.222636 -31.732046 -17.101119 -5.737995 -10.734191 19.178017 -4.243536 0.000000 0.000000 0.000000 0.000000 0.000000 0.000000 -11.505293 24.579115 8.040804 -66.285329 -6.173211 -9.084824 16.087178 9.989825 -20.529068 -14.688617 -6.880341 7.614261 0.000000 0.000000 0.000000 0.000000 0.000000 0.000000 -3.318063 4.609296 -25.784664 0.742843 -4.942781 -0.437361 -1.471918 0.310039 1.271852 0.000000 0.000000 0.000000 -6.193678 0.047466 -26.574081 2.145510 3.102002 0.807721 3.075223 7.457848 -10.095634 0.000000 0.000000 0.000000
-22.123420 70.337322 360.174810 3.645440 1.179371 25.949234 -0.189497 0.241891 -25.878815 -0.308641 -0.230926 0.116623 9.823519 -3.954122 0.682867 0.000000 0.000000 0.000000 -25.565615 15.645012 0.081997 43.025257 59.200995 -7.629040 -32.201277 -11.539762 -4.683957 -10.396891 12.968501 -7.395486 0.000000 0.000000 0.000000 0.000000 0.000000 0.000000 -9.977278 24.093432 7.511672 -68.026959 -6.122669 -8.726055 10.718642 12.197460 -20.165403 -7.824657 -7.062392 8.352370 0.000000 0.000000 0.000000 0.000000 0.000000 0.000000 -3.320908 4.648714 -25.795227 0.814723 -4.917541 -0.414803 -3.611061 3.962375 4.464651 0.000000 0.000000 0.000000 -6.112942 0.100838 -26.560884 2.199170 2.934386 0.797830 3.865282 5.935606 -8.983078 0.000000 0.000000 0.000000
-22.106285 70.284056 360.194097 3.643927 1.155017 25.964159 -0.131383 0.221673 -25.890491 -0.275972 -0.223667 0.121968 9.695959 -4.696812 0.509027 0.000000 0.000000 0.000000 -25.273988 14.650187 -0.093784 45.780122 59.874855 -10.245394 -35.616085 -5.817917 -4.641366 -7.634075 7.628348 -9.223001 0.000000 0.000000 0.000000 0.000000 0.000000 0.000000 -10.661783 24.320844 7.708325 -67.765402 -6.561840 -9.176534 8.264662 15.386226 -19.797160 -4.735392 -10.019666 7.789819 0.000000 0.000000 0.000000 0.000000 0.000000 0.000000 -3.325300 4.697247 -25.812084 0.869827 -4.921856 -0.400888 -3.911236 3.923665 4.637943 0.000000 0.000000 0.000000 -6.068674 0.151489 -26.561616 2.272854 2.831251 0.797721 4.377412 3.236306 -6.580790 0.000000 0.000000 0.000000
-22.081897 70.266003 360.199271 3.610315 1.140806 25.973670 -0.111242 0.204363 -25.898947 -0.252828 -0.218204 0.123603 9.674241 -5.401671 0.351424 0.000000 0.000000 0.000000 -25.571213 14.179064 -0.151451 48.346455 59.957956 -11.942806 -37.648459 -1.488378 -4.218042 -3.200582 1.795418 -9.049605 0.000000 0.000000 0.000000 0.000000 0.000000 0.000000 -12.101403 25.168920 8.318510 -67.170266 -7.024288 -10.199474 11.091855 16.865411 -20.033923 -6.033592 -8.698730 9.313494 0.000000 0.000000 0.000000 0.000000 0.000000 0.000000 -3.296436 4.715925 -25.822435 0.833163 -4.901806 -0.409519 -2.493706 4.414251 3.926966 0.000000 0.000000 0.000000 -6.036701 0.162157 -26.569789 2.375912 2.816156 0.814134 4.367834 -0.793714 -2.594128 0.000000 0.000000 0.000000
-22.037209 70.279304 360.191275 3.586916 1.138721 26.004114 -0.108210 0.189730 -25.929079 -0.234470 -0.216285 0.124617 9.591541 -6.023931 0.202001 0.000000 0.000000 0.000000 -26.571550 14.468170 -0.063272 51.123549 59.103284 -12.712242 -38.364038 2.466362 -3.317418 -2.070508 -1.798952 -9.340658 0.000000 0.000000 0.000000 0.000000 0.000000 0.000000 -13.650934 26.747864 9.253316 -66.657953 -7.815699 -12.188011 15.093582 16.897013 -20.346257 -8.895036 -6.889646 10.223464 0.000000 0.000000 0.000000 0.000000 0.000000 0.000000 -3.312503 4.743840 -25.860662 0.844618 -4.882720 -0.405967 -0.325222 5.246276 2.836985 0.000000 0.000000 0.000000 -6.092601 0.153850 -26.618849 2.622898 2.848354 0.863982 3.944573 -5.986850 2.802839 0.000000 0.000000 0.000000
